<?xml version="1.0" encoding="utf-8"?>
<!-- Generator: Adobe Illustrator 23.0.3, SVG Export Plug-In . SVG Version: 6.00 Build 0)  -->
<svg version="1.0" id="Layer_1" xmlns="http://www.w3.org/2000/svg" xmlns:xlink="http://www.w3.org/1999/xlink" x="0px" y="0px"
	 viewBox="0 0 512 512" style="enable-background:new 0 0 512 512;" xml:space="preserve">
<path style="fill:#FFFFFF;" d="M512.5,1c-169,0-338,0-507,0c-1,0-2.2,0.5-3-0.5c169.3,0,338.5,0,507.8,0C511,0.5,511.9,0,512.5,1z
	 M425.4,401.6c-0.7-0.4-0.9,0.4-1.2,0.8c-2.4,2.7-4.1,6-7.2,8.1c-0.8,0.7-1.6,1.4-2.5,2c-5,4.1-10.4,7.5-16.1,10.3
	c-7.7,3.8-15.7,6.9-23.9,9.7c-2.9,0.9-5.8,2-8.8,2.8c-14.7,4-29.6,7.1-44.6,9.4c-13.8,2-27.8,3.3-41.7,4.1
	c-16.2,1-32.5,0.8-48.7,0.5c-10.2-0.1-20.5-0.8-30.6-1.8c-6.8-0.5-13.6-1.4-20.4-2.2c-5.4-0.6-10.8-1.6-16.2-2.5
	c-4.7-0.8-9.4-1.6-14.1-2.7c-7-1.6-14.1-3.1-21-5.2c-6.1-1.8-12.2-3.7-18.2-6c-9-3.4-17.7-7.3-25.7-12.5c-2.8-2-5.6-4-8.4-6
	c-2.9-3.2-6.1-6.1-8.4-9.8c-4-6.8-5.1-13.7-1.8-21.1c3.7-8.2,10-14,17-19.1c8.9-6.6,19-11.3,29-15.8c0.1,0,0.1-0.1,0.2-0.2
	c0-0.1,0-0.1,0-0.2c1.5-0.7,3.4-0.7,4.5-2.3c-0.8-1.4-1.8-0.4-2.6-0.2c-10,3.1-19.8,6.9-29,12c-8.2,4.5-15.7,9.9-21.4,17.5
	c-6.3,8.4-8.5,17.7-5,27.7c2.8,8.2,8.5,14.6,15.2,20c1,0.8,2,1.6,2.9,2.5c-0.1,0-0.1,0.1-0.2,0.1c0.3,0.8,1.1,1.2,1.8,1.7
	c4.9,3.6,10.2,6.7,15.6,9.3c10.2,5,20.8,9.1,31.7,12.4c9.9,3,19.8,5.5,29.9,7.5c11.5,2.2,23.1,3.9,34.7,5.3
	c14.1,1.6,28.2,2.4,42.3,2.7c21.3,0.5,42.6-0.7,63.8-3c4.1-0.4,8.2-0.8,12.2-1.9c0,0,0,0,0,0c0.7-0.2,1.4-0.5,2.2-0.6
	c11.7-1.7,23.2-4,34.7-6.9c14-3.6,27.8-7.9,41-14c12.3-5.7,24-12.3,33.2-22.5c2-2.7,4.3-5.2,5.9-8.2
	C425.7,402.7,426.2,402,425.4,401.6z M269.7,60c3.2-13,3.1-25.9-2.4-38.3c-1.6-3.6-3.6-7.1-6.7-9.9c-0.6-0.5-1.3-1.1-1.4-2.2
	c2.8,0.4,4.8,1.9,6.7,3.6c7.3,6.4,11.6,14.6,13.6,23.9c5.1,23.9-2.6,44.6-16.4,63.7c-5.5,7.5-12,14.2-17,22.2
	c-2.4,4.8-4.7,9.5-6.1,14.7c-2.6,9.7-2.2,19.2,0.8,28.7c3.1,9.9,8.4,18.6,14.2,27.1c0.4,0.7,1,1.3,1.4,2c0.2,0.4,0.6,0.9,0.1,1.3
	c-0.6,0.5-1-0.1-1.5-0.4c-0.6-0.6-1.1-1.2-1.7-1.8c0.1-0.1,0.2-0.2,0.3-0.3c0,0,0,0-0.1-0.1c0,0.1-0.1,0.3-0.2,0.4
	c-4.9-4-8.9-8.9-12.6-14c-6.7-9.3-11.2-19.4-12-30.9c-0.7-10.6,1.4-20.6,6.6-29.8c0-0.1,0.1-0.2,0.2-0.3c1.1-3.5,3.3-6.3,5.2-9.3
	c3.7-5.7,8.2-10.7,12.3-16.1C260.6,83.8,266.6,72.6,269.7,60z M235.5,120.6C235.5,120.6,235.5,120.6,235.5,120.6
	C235.5,120.6,235.5,120.6,235.5,120.6C235.5,120.6,235.5,120.6,235.5,120.6z M368.7,455.2c-8,3.8-16.3,6.6-24.7,9.2
	c-0.3,0.1-0.6,0.1-1,0.1c-9.4,2.6-18.8,5-28.4,6.7c-6,1-11.9,2-17.9,2.8c-16.5,2.3-33.1,3.1-49.8,3.3c-14.3,0.2-28.6-0.4-42.9-1.7
	c-15-1.4-29.8-3.8-44.5-7.1c-3.5,0.1-6.7-1.2-9.9-2.1c-11-3.1-22-6.5-32.3-11.7c-0.7-0.3-1.3-0.8-1.9-1.2c-7-3.1-15.2-8.5-17.3-11.5
	c2.3,0.4,4.1,1.7,6,2.5c11.5,5.2,23.6,8.6,35.9,11.2c12.3,2.6,24.6,4.7,37.1,6c15.1,1.6,30.3,2.8,45.6,3.2
	c17.9,0.5,35.8,0.5,53.7-0.4c14.1-0.8,28.2-1.8,42.2-3.9c1.1-0.2,2.1-0.2,3.2-0.3c1.1-0.2,2.1-0.3,3.2-0.1c0.1,0,0.2,0,0.2,0
	c3.3-1,6.8-1.3,10.3-1.9c10-1.8,19.9-4,29.7-6.9c6.9-2,13.6-4.5,20.1-7.8c0.6-0.3,1.6-1,1.2,0.7c-0.6,0.5-1.3,1.1-1.9,1.6
	C379.8,450,374.2,452.6,368.7,455.2z M102.9,445.4C102.9,445.4,102.9,445.4,102.9,445.4C102.9,445.4,103,445.4,102.9,445.4
	C102.9,445.4,102.9,445.4,102.9,445.4z M136,338.6c2.8,17.6,8.2,34.1,17.5,49.3c14.2,23.2,35,37.4,61.2,44
	c7.2,1.8,14.5,2.8,21.9,3.6c20.2,2.3,40.1,0.8,59.3-6.1c15.3-5.5,28.3-14.3,38.6-27c4.5-4.2,7.5-9.5,10-15l0,0
	c0.2-0.2,0.6-0.3,0.7-0.6c4.2-8.8,7.5-17.9,9.3-27.6c1.2-6.6,2.2-13.3,3.9-19.8c2.4-9.4,5.3-18.7,9.7-27.5c0,0,0,0,0,0
	c1.8-2.7,3.6-5.4,5.3-8.1c0.7-0.7,1.5-1.3,2.2-2c4.2-3.8,8.8-5.1,14.4-2.8c4,1.6,7.2,4.2,10.5,6.9c6.7,9,5.7,18.9,2.8,28.7
	c-2.3,7.8-8.1,13.6-14.2,18.9c-5.1,4.3-10.8,7.7-16.8,10.6c-0.5,0.3-1.5,0.4-1.2,1.3c0.3,0.7,1.1,0.5,1.8,0.2
	c0.2-0.1,0.5-0.1,0.7-0.2c10.1-4.1,18.9-10,26.5-18.1c7-7.4,9.5-16.4,10.6-26c0.6-5.1-0.7-10.1-2.9-14.7c-4.2-8.9-11.8-13.5-21-15.7
	c-2.4-0.6-4.8-0.3-7.1,0.4c-6.5,1.9-11.2,6.2-15,11.7c-8.3,12-12.7,25.7-16,39.8c-1.5,6.1-2.3,12.4-3.9,18.5
	c-2.2,8.1-5.3,15.9-9.4,23.3c-6.3,11.4-14.8,20.6-25.8,27.5c-16.2,10.3-34.3,14.5-53.3,15.1c-13.9,0.4-27.7-1-41.2-4.2
	c-11.8-2.8-22.7-7.5-32.6-14.4c-8.3-5.4-15.1-12.3-20.9-20.2c-15.6-21.2-22.4-45.5-25.3-71.1c-0.7-6.1-0.9-12.2-1.4-18.2
	c-0.7,2.1-0.9,4.2-1,6.4C133.7,316.5,134.2,327.6,136,338.6z M157.7,260.4c-6.9,2.9-13.4,6.5-18.5,12.1c-3.1,3.4-5.2,7.3-5.4,12.1
	c-0.1,4.7,1,8.9,4.2,12.7c5.1,6.2,11.7,10.1,18.9,13.1c10.7,4.6,21.9,7.4,33.3,9.4c13.7,2.4,27.6,3.3,41.4,3.9
	c6.7,0.3,13.5,0,20.2-0.3c9.7-0.5,19.4-1.1,29.1-2.3c14.7-1.8,29.3-4.3,43.6-8.5c0.6-0.5,0.9-1.1-0.2-1.3c-0.6-0.1-1.3-0.2-1.9,0.2
	c-4,0.8-8,1.6-12,2.3c-12.9,2.3-25.9,3.4-39,3.6c-23.7,0.4-47.2-1.4-70.5-5.8c-12.5-2.3-24.8-5.5-36.6-10.4
	c-5.9-2.5-11.6-5.3-16.1-10.2c-3.3-3.6-3.5-6.1-0.7-10c1.3-1.8,2.9-3.2,4.7-4.4c1.4-1,2.8-2,4.2-3c5.2-2.4,10.4-4.7,15.8-6.6
	c11.1-4,22.5-6.4,34.1-8.4c12-2.1,24-3.5,36.2-4.2c9.9-0.6,19.8-0.8,29.7-0.7c1.5,0,2.1,0.5,1.9,2.1c-0.7,6.6,1,12.5,4.8,17.9
	c0.6,0.9,1.2,1.8,2.8,2.4c-1-2.8-1.9-5.1-2.6-7.6c-1.1-4.1-1-8.2-0.1-12.3c0.2-1,0.5-2.1,2.1-2c7.6,0.6,15.3,1,22.8,2.2
	c6.2,1,12.3,2.2,18.4,3.3c0.7,0.2,1.8,0.8,2-0.3c0.2-0.9-0.8-1-1.5-1c-0.1,0-0.3-0.1-0.4-0.3c-3.8-1-7.5-2-11.4-2.9
	c-9-2.1-18.1-3.6-27.3-4.8c-2.5-0.3-2.8-0.7-1.5-2.9c3.6-6.2,8.5-11.3,13.5-16.3c8-8,12.7-17.4,10.8-29c-1.6-9.4-5.9-17.8-11.1-25.7
	c-0.1-0.1-0.3-0.2-0.4-0.1c-2.7-4.9-5.8-9.6-8.6-14.4c-6.2-11-7.9-22-1-33.4l0,0c0.2-0.7,1.4-1.4,0.2-2.2c-1-0.1-1.3,0.6-1.7,1.2
	c-5.5,6.7-8.6,14.2-7.6,23c0.9,7.8,3.9,14.9,7.9,21.5c0,1,0.7,1.7,1.1,2.5c3.2,6,6.6,11.9,9.4,18.2c5.3,12,4.8,23.1-4.5,33.1
	c-6.1,6.5-11.4,13.5-14.4,22c-0.5,1.3-1.4,1.5-2.5,1.4c-3.1-0.3-6.1-0.7-9.2-0.8c-11.5-0.5-22.9-1.2-34.4-0.8
	c-12.4,0.5-24.7,1.3-37,3.3C180.8,252.9,169,255.6,157.7,260.4z M345.1,398.6c5.7-1.4,11.3-2.8,16.9-4.8c0,0,0,0,0.1,0
	c0,0.1,0,0.2,0,0.3c6.6-2,12.9-4.8,19-7.9c4.3-2.2,8.8-4.3,12.5-7.6c1-0.7,1.9-1.4,2.9-2.1c1.8-0.4,3.1-1.4,4.1-2.9
	c5.9-4.8,11.5-9.8,16-16c2.6-3.5,4.9-7.1,7-10.9c2.5-4.7,4.3-9.7,5.5-14.9c1.2-5.4,1.6-10.8,1.2-16.3c-0.5-8.4-3.3-15.9-9.1-22.1
	c-6.4-6.8-14.3-10.4-23.7-11.2c-7.1-0.6-13.8,0.7-20.3,3.5c-0.7,0.3-1.9,0.4-1.6,1.5c0.3,1,1.3,0.3,2,0.3c8.1-1,16.1-0.8,23.7,2.6
	c9.3,4.1,15.6,10.8,17.2,21.2c0.7,4.4,0.6,8.7,0,13.1c-1,7.2-3.1,13.9-6.9,20.1c-5.8,9.7-13.3,17.9-22,25c-2,0.9-3.7,2.2-5,3.9
	c-6.4,4.8-13.1,9.1-20,13c-6.5,3.7-13.3,7.1-20,10.4c-0.6,0.3-1.4,0.4-1.1,1.3C343.7,399,344.5,398.7,345.1,398.6z"/>
<path style="fill:#FFFFFF;" d="M67.5,449.3c-5.5-3.8-11.2-7-17.7-7.9c-2.4-0.3-4.7,0.1-7.1,0.3c-0.4,0-1,0-0.9,0.6
	c0,0.6,0.6,0.6,1,0.5c2.7-0.1,5.5-0.3,8.1,0.5c6.2,1.9,11.7,5.2,16.6,9.7c1,0.9,1.7,2.2,2,3.7c0.5,2.6-0.1,3.4-2.4,3
	c-1.9-0.4-3.7-1.3-5.4-2.4c-3.6-2.2-7-5-10.4-7.6c-0.2-0.3-0.5-0.5-0.7-0.8c-2.9-2.9-5.9-5-10-3.8c-1.2,0.3-2.4-0.1-3.5-0.5
	c-4.7-1.7-8.3,0.8-8.8,6.2c-0.4,3.8,0.1,7.4,1.6,10.8c0.2,0.4,0.3,0.7,0.7,0.9c3.5,6.9,9,11,15.6,13.4c4.5,1.7,9.1,2.7,13.8,2
	c4.6-0.7,8.3-3.2,10.8-7.6c1.7-2.9,2.5-12.1,1.4-15.2C71.3,452.6,69.5,450.7,67.5,449.3z M31.6,458.8c0.6-0.5,1.1,0.1,1.5,0.6
	c0.8,0.9,1.6,1.7,2.5,2.5c4.4,3.8,9.3,6.3,14.6,7.9c4.5,1.3,9.1,1.6,13.7,0.2c1.9-0.6,3.5-1.9,5.4-2.4c0.2,1.5-1,2-1.7,3
	c-0.4,0.7-1.3,0.9-1.5,1.8c-2.6,1.9-5.4,2.7-8.4,2.6c-5.7-0.1-11-2-16-4.7c-4.1-2.2-7.3-5.4-9.9-9.4
	C31.5,460.1,30.9,459.4,31.6,458.8z M67.8,462.3c-0.9,1.7-2.2,2.3-3.6,2.9c-4.7,2.1-9.4,1.3-14.1-0.3c-3.2-1.1-6.3-2.5-9.1-4.4
	c-0.4-0.3-0.9-0.7-1.4-0.5c0,0,0,0,0,0c-2-1.8-4-3.5-5.8-5.6c-1.5-1.8-2.1-3.7-1.3-5c1.1-1.7,2.8-1.1,4.3-0.9c1.7,0.3,3,1.6,4.4,2.5
	c0,0,0.1,0.1,0.1,0.1c0.1,0.7,0.6,1.1,1,1.5c1.7,1.9,3.3,3.8,5,5.6c3.8,4.1,8.4,5.2,13.4,5C63,463.2,65.2,462.4,67.8,462.3z
	 M54.4,456.2c0.6,0.4,1.2,1,1.9,1.3c0.1,0.6,0.7,0.8,1.2,1.1c1,0.6,2.1,1.1,3.2,1.9c-1.2,0.8-2.5-0.5-3.6,0.4
	c-0.1-0.1-0.1-0.1-0.2-0.2c-1.4-0.3-2.8-0.7-3.9-1.6c-0.7-0.6-1.5-1.2-2.3-1.7c-2-1.6-3.4-3.9-5.1-5.8c-1-1.2-1.8-2.4-3-3.3
	c-0.1,0-0.2,0-0.2,0c0,0,0,0-0.1,0c0.2-0.3-0.1-0.8,0.1-1.1c0.7,0,1.4,0.8,2.1,0.5c0,0,0,0,0.1,0C48.1,450.2,50.9,453.7,54.4,456.2z
	 M41.7,445.4C41.7,445.4,41.7,445.4,41.7,445.4c-0.1,0-0.1,0-0.1,0C41.6,445.4,41.7,445.4,41.7,445.4z"/>
<path style="fill:#FFFFFF;" d="M410.7,466.1c-1.5,0.4-3,0.9-4.6,0.5c-5.4-1.3-9.5,1-13.3,4.2c-0.3,0.3-0.6,0.6-1,0.8
	c-4.5,2.9-8.9,5.9-13.8,8.4c-2.3,1.2-4.6,2.2-7.2,2.6c-3.1,0.5-3.9-0.5-3.2-3.3c0.4-1.6,1.3-3,2.7-4c6.5-5,13.8-8.6,22-10.7
	c3.6-0.9,7.2-0.7,10.8-0.6c0.6,0,1.3,0,1.3-0.6c0-0.7-0.7-0.7-1.2-0.7c-3.1-0.2-6.3-0.6-9.4-0.3c-8.7,0.9-16.2,4.5-23.5,8.7
	c-2.6,1.5-5,3.6-6.1,6.5c-1.3,3.4-0.3,13.6,1.9,16.8c3.3,4.9,8.2,7.6,14.3,8.4c6.3,0.8,12.4-0.3,18.3-2.2
	c8.7-2.7,15.9-7.3,20.6-14.8c0.5-0.1,0.7-0.5,0.9-0.9c2-3.8,2.7-7.8,2.2-12C421.7,467,416.9,464.3,410.7,466.1z M370,494.4
	c-0.8-1-2.4-1.6-2.2-3.3h0l0,0c2.5,0.6,4.6,2,7.1,2.7c6.1,1.6,12.2,1.3,18.2-0.2c7.1-1.7,13.6-4.5,19.4-8.7c1.2-0.9,2.3-1.8,3.3-2.8
	c0.6-0.5,1.3-1.1,2-0.6c1,0.7,0.2,1.5-0.3,2.1c-3.5,4.5-7.8,8-13.2,10.4c-6.7,3-13.8,5-21.3,5.2c-4,0.1-7.8-0.8-11.2-2.9
	c0,0,0,0,0,0c0,0,0,0,0,0C371.7,495.4,370.6,495.1,370,494.4z M397.2,481c2.3-2,4.5-4.1,6.7-6.2c0.5-0.5,1.2-0.9,1.3-1.7
	c0.1,0,0.1-0.1,0.2-0.1c1.9-1,3.6-2.5,5.9-2.7c2-0.2,4.2-0.9,5.6,1c1.1,1.4,0.3,3.5-1.7,5.5c-2.3,2.3-5,4.2-7.7,6.2c0,0,0,0,0,0
	c-0.7-0.2-1.3,0.2-1.9,0.6c-3.8,2.1-7.9,3.6-12.1,4.8c-6.2,1.8-12.4,2.6-18.7,0.3c-1.8-0.6-3.5-1.3-4.7-3.2c3.4,0.1,6.3,1,9.4,1.1
	C386.1,486.7,392.2,485.5,397.2,481z M404.6,466.9C404.6,466.9,404.6,466.8,404.6,466.9c0-0.1,0.1-0.1,0.1-0.1
	C404.7,466.8,404.6,466.9,404.6,466.9z M400.8,469.4C400.8,469.4,400.9,469.4,400.8,469.4c1.1,0.3,1.9-0.6,2.9-0.6
	c0.2,0.3-0.2,0.9,0.1,1.2c0,0-0.1,0-0.1,0c-0.1,0-0.2,0-0.3,0c-1.6,1-2.7,2.4-4,3.7c-2.2,2.2-4,4.7-6.7,6.4c-1.1,0.5-2,1.2-3,1.8
	c-1.6,1.1-3.4,1.4-5.2,1.8c-0.1,0-0.2,0.1-0.2,0.2c-1.4-1-3.1,0.5-4.8-0.4c1.5-0.8,2.9-1.4,4.2-2.1c0.6-0.3,1.4-0.5,1.6-1.3
	c0.9-0.4,1.7-0.9,2.5-1.4C392.4,476,396.1,472.1,400.8,469.4z"/>
<path style="fill:#FFFFFF;" d="M470.3,427c-1.3,0.1-2.6,0.1-3.7-0.6c-3.8-2.5-7.6-1.3-11.5,0.7c-0.3,0.2-0.7,0.4-1,0.5
	c-4.3,1.6-8.6,3.3-13,4.4c-2.1,0.5-4.2,0.9-6.3,0.7c-2.5-0.3-2.9-1.4-1.5-3.8c0.8-1.4,1.9-2.4,3.2-3.1c6.5-3,13.1-4.6,20-4.5
	c3,0,5.7,1.1,8.5,2c0.4,0.1,1,0.4,1.2-0.2c0.2-0.6-0.4-0.8-0.8-0.9c-2.4-0.9-4.6-2.1-7.2-2.5c-6.9-1.2-13.8,0.3-20.6,2.3
	c-2.5,0.8-4.9,2.1-6.6,4.5c-2,2.8-4.1,12.4-3.3,15.9c1.2,5.3,4.1,8.9,8.6,11.1c4.6,2.3,9.6,2.7,14.7,2.4c7.5-0.4,14.3-2.8,20.1-8.7
	c0.4,0,0.7-0.3,1-0.6c2.6-3,4.3-6.5,5.1-10.4C478.6,430.4,475.7,426.8,470.3,427z M430.9,443.2c-0.4-1.1-1.4-2.1-0.8-3.5
	c0,0,0,0,0,0c1.8,1.1,3,3,4.7,4.2c4.3,2.9,9,4.1,14.1,4.2c5.9,0.1,11.8-0.8,17.4-3.3c1.1-0.5,2.3-1.1,3.4-1.7
	c0.6-0.3,1.3-0.7,1.7-0.1c0.6,0.9-0.3,1.4-0.8,1.9c-3.9,3.3-8.3,5.5-13.1,6.4c-6,1.1-12,1.3-17.9-0.3c-3.1-0.9-5.8-2.6-7.8-5.3
	C432,444.5,431.2,444,430.9,443.2z M455.7,437.4c2.3-1.3,4.6-2.7,6.9-4.1c0.5-0.3,1.2-0.6,1.5-1.2c0.1,0,0.1,0,0.2,0
	c1.8-0.4,3.5-1.4,5.3-1.1c1.6,0.2,3.5,0.2,4.1,2.3c0.4,1.5-0.8,3.3-2.9,4.6c-2.4,1.6-5,2.7-7.6,3.8c0,0,0,0,0,0
	c-0.5-0.3-1.1-0.1-1.6,0.1c-3.5,1-7.1,1.4-10.7,1.5c-5.3,0.2-10.3-0.6-14.5-4.2c-1.2-1-2.3-2.1-2.7-4.1c2.6,0.9,4.6,2.4,6.9,3.3
	C445.5,440,450.5,440.3,455.7,437.4z M465.4,426.2C465.4,426.2,465.4,426.2,465.4,426.2c0-0.1,0.1-0.1,0.1,0
	C465.5,426.2,465.4,426.2,465.4,426.2z M461.7,427.6C461.8,427.6,461.8,427.6,461.7,427.6c0.8,0.5,1.6-0.1,2.4,0.1
	c0.1,0.4-0.4,0.8-0.3,1.1c0,0,0,0-0.1,0c-0.1,0-0.2,0-0.3,0c-1.5,0.5-2.8,1.6-4.1,2.4c-2.3,1.5-4.4,3.3-7,4.3c-1,0.2-1.9,0.6-2.8,1
	c-1.5,0.6-3,0.5-4.5,0.4c-0.1,0-0.2,0.1-0.3,0.1c-0.8-1.2-2.6-0.3-3.5-1.5c1.4-0.4,2.6-0.6,3.9-0.9c0.6-0.2,1.3-0.2,1.6-0.8
	c0.8-0.1,1.6-0.5,2.4-0.7C453.4,431.7,457.4,429,461.7,427.6z"/>
</svg>
